<svg height="512" viewBox="0 0 64 64" width="512" xmlns="http://www.w3.org/2000/svg"><g id="Global-2" data-name="Global"><path d="m49.28 54.13a17.9 17.9 0 0 1 5.03 2.87 17.955 17.955 0 0 0 6.69-14h-10a34.151 34.151 0 0 1 -1.72 11.13z" fill="#9bc9ff"/><circle cx="56" cy="10" fill="#9bc9ff" r="3"/><path d="m49.28 31.87a18.016 18.016 0 0 1 -12.56 0 34.151 34.151 0 0 0 -1.72 11.13h16a34.151 34.151 0 0 0 -1.72-11.13z" fill="#9bc9ff"/><path d="m49.28 31.87a17.9 17.9 0 0 0 5.03-2.87 17.988 17.988 0 0 0 -11.31-4c2.55 0 4.82 2.69 6.28 6.87z" fill="#9bc9ff"/><path d="m36.72 54.13c1.46 4.18 3.73 6.87 6.28 6.87s4.82-2.69 6.28-6.87a18.016 18.016 0 0 0 -12.56 0z" fill="#9bc9ff"/><path d="m45 15h4v-12h-46v12zm-20-8a2 2 0 1 1 -2 2 2.006 2.006 0 0 1 2-2zm-8 0a2 2 0 1 1 -2 2 2.006 2.006 0 0 1 2-2zm-8 0a2 2 0 1 1 -2 2 2.006 2.006 0 0 1 2-2z" fill="#9bc9ff"/><path d="m43 25a17.932 17.932 0 0 0 -11.31 4 17.9 17.9 0 0 0 5.03 2.87c1.46-4.18 3.73-6.87 6.28-6.87z" fill="#9bc9ff"/><path d="m25 43a17.881 17.881 0 0 1 1.88-8h-23.88v12h22.46a17.786 17.786 0 0 0 4.13 8 17.291 17.291 0 0 0 2.1 2 17.9 17.9 0 0 1 5.03-2.87 34.151 34.151 0 0 1 -1.72-11.13zm-16 0a2 2 0 1 1 2-2 2.006 2.006 0 0 1 -2 2zm8 0a2 2 0 1 1 2-2 2.006 2.006 0 0 1 -2 2z" fill="#9bc9ff"/><circle cx="25" cy="25" fill="#9bc9ff" r="2"/><circle cx="17" cy="25" fill="#9bc9ff" r="2"/><circle cx="10" cy="55" fill="#9bc9ff" r="3"/><circle cx="9" cy="25" fill="#9bc9ff" r="2"/><g fill="#57a4ff"><path d="m57 30.2v-16.342a4 4 0 1 0 -2 0v14.427c-.056-.046-.118-.085-.175-.131a.628.628 0 0 0 -.052-.038 18.977 18.977 0 0 0 -4.773-2.763v-6.353a1 1 0 0 0 -1-1h-3v-2h3a1 1 0 0 0 1-1v-12a1 1 0 0 0 -1-1h-46a1 1 0 0 0 -1 1v12a1 1 0 0 0 1 1h3v2h-3a1 1 0 0 0 -1 1v12a1 1 0 0 0 1 1h3v2h-3a1 1 0 0 0 -1 1v12a1 1 0 0 0 1 1h21.69a18.891 18.891 0 0 0 2.847 6h-13.679a4 4 0 1 0 0 2h15.324a19.089 19.089 0 0 0 1.991 1.844c.019.012.034.03.054.04a18.97 18.97 0 0 0 25.773-27.684zm-47 26.8a2 2 0 1 1 2-2 2 2 0 0 1 -2 2zm41.977-15a35.319 35.319 0 0 0 -1.458-9.567 18.938 18.938 0 0 0 3.73-2.145c.253.224.511.444.751.683v.029h.029a16.939 16.939 0 0 1 4.92 11zm-8.977 18c-1.789 0-3.638-1.926-4.989-5.232a16.589 16.589 0 0 1 9.978 0c-1.351 3.306-3.2 5.232-4.989 5.232zm6.842-4.552a17 17 0 0 1 2.784 1.552 16.907 16.907 0 0 1 -4.988 2.344 15.679 15.679 0 0 0 2.204-3.896zm-23.791-11.448h7.972a35.319 35.319 0 0 0 1.458 9.567 18.938 18.938 0 0 0 -3.73 2.145 16.941 16.941 0 0 1 -5.7-11.712zm5.7-13.712a18.938 18.938 0 0 0 3.73 2.145 35.319 35.319 0 0 0 -1.458 9.567h-7.972a16.941 16.941 0 0 1 5.7-11.712zm20.875-1.288a17 17 0 0 1 -2.784 1.549 15.679 15.679 0 0 0 -2.2-3.893 16.907 16.907 0 0 1 4.984 2.344zm-4.637 2.229a16.589 16.589 0 0 1 -9.978 0c1.351-3.303 3.2-5.229 4.989-5.229s3.638 1.926 4.989 5.232zm-11.831-.68a17 17 0 0 1 -2.784-1.549 16.907 16.907 0 0 1 4.988-2.344 15.679 15.679 0 0 0 -2.204 3.896zm0 24.9a15.679 15.679 0 0 0 2.2 3.893 16.907 16.907 0 0 1 -4.984-2.342 17 17 0 0 1 2.784-1.552zm6.842-3.449a18.979 18.979 0 0 0 -5.664.885 33.65 33.65 0 0 1 -1.314-8.885h13.956a33.65 33.65 0 0 1 -1.314 8.885 18.979 18.979 0 0 0 -5.664-.885zm-6.978-10a33.65 33.65 0 0 1 1.314-8.885 18.567 18.567 0 0 0 11.328 0 33.65 33.65 0 0 1 1.314 8.885zm17.978-32a2 2 0 1 1 2 2 2 2 0 0 1 -2-2zm-50-6h44v10h-44zm4 12h36v2h-36zm-4 4h44v4.69a18.772 18.772 0 0 0 -16.773 3.426c-.02.01-.035.028-.054.04a19.089 19.089 0 0 0 -1.991 1.844h-25.182zm4 12h19.537a18.821 18.821 0 0 0 -1.264 2h-18.273zm-4 14v-10h21.353a18.346 18.346 0 0 0 -1.092 10zm50.249 9.712a18.938 18.938 0 0 0 -3.73-2.145 35.319 35.319 0 0 0 1.458-9.567h7.972a16.941 16.941 0 0 1 -5.7 11.712z"/><path d="m9 6a3 3 0 1 0 3 3 3 3 0 0 0 -3-3zm0 4a1 1 0 1 1 1-1 1 1 0 0 1 -1 1z"/><path d="m17 6a3 3 0 1 0 3 3 3 3 0 0 0 -3-3zm0 4a1 1 0 1 1 1-1 1 1 0 0 1 -1 1z"/><path d="m25 6a3 3 0 1 0 3 3 3 3 0 0 0 -3-3zm0 4a1 1 0 1 1 1-1 1 1 0 0 1 -1 1z"/><path d="m33 6h-2a1 1 0 0 0 0 2h2a1 1 0 0 0 0-2z"/><path d="m33 10h-2a1 1 0 0 0 0 2h2a1 1 0 0 0 0-2z"/><path d="m39 6h-2a1 1 0 0 0 0 2h2a1 1 0 0 0 0-2z"/><path d="m39 10h-2a1 1 0 0 0 0 2h2a1 1 0 0 0 0-2z"/><path d="m45 6h-2a1 1 0 0 0 0 2h2a1 1 0 0 0 0-2z"/><path d="m45 10h-2a1 1 0 0 0 0 2h2a1 1 0 0 0 0-2z"/><path d="m9 22a3 3 0 1 0 3 3 3 3 0 0 0 -3-3zm0 4a1 1 0 1 1 1-1 1 1 0 0 1 -1 1z"/><path d="m17 22a3 3 0 1 0 3 3 3 3 0 0 0 -3-3zm0 4a1 1 0 1 1 1-1 1 1 0 0 1 -1 1z"/><path d="m25 22a3 3 0 1 0 3 3 3 3 0 0 0 -3-3zm0 4a1 1 0 1 1 1-1 1 1 0 0 1 -1 1z"/><path d="m31 24h2a1 1 0 0 0 0-2h-2a1 1 0 0 0 0 2z"/><path d="m37 24h2a1 1 0 0 0 0-2h-2a1 1 0 0 0 0 2z"/><path d="m9 38a3 3 0 1 0 3 3 3 3 0 0 0 -3-3zm0 4a1 1 0 1 1 1-1 1 1 0 0 1 -1 1z"/><path d="m17 38a3 3 0 1 0 3 3 3 3 0 0 0 -3-3zm0 4a1 1 0 1 1 1-1 1 1 0 0 1 -1 1z"/></g></g></svg>