<svg height="512" viewBox="0 0 64 64" width="512" xmlns="http://www.w3.org/2000/svg"><g id="Development-2" data-name="Development"><path d="m55 40 6 12h-25-8-25l6-12z" fill="#bddbff"/><path d="m36 52v2a1 1 0 0 1 -1 1h-6a1 1 0 0 1 -1-1v-2h-25v5a1 1 0 0 0 1 1h56a1 1 0 0 0 1-1v-5z" fill="#bddbff"/><path d="m9 14v-6a2.006 2.006 0 0 1 2-2h42a2.006 2.006 0 0 1 2 2v6z" fill="#bddbff"/><g fill="#3d9ae2"><path d="m61.9 51.553-5.9-11.789v-31.764a3 3 0 0 0 -3-3h-42a3 3 0 0 0 -3 3v31.764l-5.895 11.789a1 1 0 0 0 -.105.447v5a2 2 0 0 0 2 2h56a2 2 0 0 0 2-2v-5a1 1 0 0 0 -.1-.447zm-32.9 1.447h6v1h-6zm-24.382-2 5-10h44.764l5 10zm5.382-36h44v24h-44zm1-8h42a1 1 0 0 1 1 1v5h-44v-5a1 1 0 0 1 1-1zm-7 50v-4h23v1a2 2 0 0 0 2 2h6a2 2 0 0 0 2-2v-1h23v4z"/><path d="m10 47h2v2h-2z"/><path d="m14 47h2v2h-2z"/><path d="m18 47h28v2h-28z"/><path d="m48 47h2v2h-2z"/><path d="m52 47h2v2h-2z"/><path d="m15 43h2v2h-2z"/><path d="m11 43h2v2h-2z"/><path d="m19 43h2v2h-2z"/><path d="m23 43h2v2h-2z"/><path d="m27 43h2v2h-2z"/><path d="m31 43h2v2h-2z"/><path d="m35 43h2v2h-2z"/><path d="m39 43h2v2h-2z"/><path d="m43 43h2v2h-2z"/><path d="m47 43h2v2h-2z"/><path d="m51 43h2v2h-2z"/><path d="m12 9h2v2h-2z"/><path d="m16 9h2v2h-2z"/><path d="m20 9h2v2h-2z"/><path d="m25.293 21.293-5 5a1 1 0 0 0 0 1.414l5 5 1.414-1.414-4.293-4.293 4.293-4.293z"/><path d="m38.707 21.293-1.414 1.414 4.293 4.293-4.293 4.293 1.414 1.414 5-5a1 1 0 0 0 0-1.414z"/><path d="m24.72 26h14.56v2h-14.56z" transform="matrix(.275 -.961 .961 .275 -2.757 50.344)"/></g></g></svg>