<svg height="512" viewBox="0 0 64 64" width="512" xmlns="http://www.w3.org/2000/svg"><path d="m42 53v2a2.006 2.006 0 0 1 -2 2h-16a2.006 2.006 0 0 1 -2-2v-2h-19v4a4 4 0 0 0 4 4h50a4 4 0 0 0 4-4v-4z" fill="#9bc9ff"/><path d="m55.86 12.38 3.16-3.16-4.24-4.24-3.16 3.16a10.468 10.468 0 0 0 -1.62-.68v-4.46h-6v4.46a10.468 10.468 0 0 0 -1.62.68l-3.16-3.16-4.24 4.24 3.16 3.16a10.468 10.468 0 0 0 -.68 1.62h-4.46v6h4.46a10.468 10.468 0 0 0 .68 1.62l-3.16 3.16 4.24 4.24 3.16-3.16a10.468 10.468 0 0 0 1.62.68v4.46h6v-4.46a10.468 10.468 0 0 0 1.62-.68l3.16 3.16 2.22-2.22 2.02-2.02-3.16-3.16a10.468 10.468 0 0 0 .68-1.62h4.46v-6h-4.46a10.468 10.468 0 0 0 -.68-1.62zm-8.86 10.62a6 6 0 1 1 6-6 6 6 0 0 1 -6 6z" fill="#9bc9ff"/><path d="m8.14 39.62-3.16 3.16 2.02 2.02 2.22 2.22 3.16-3.16a10.468 10.468 0 0 0 1.62.68v4.46h6v-4.46a10.468 10.468 0 0 0 1.62-.68l3.16 3.16 4.24-4.24-3.16-3.16a10.468 10.468 0 0 0 .68-1.62h4.46v-6h-4.46a10.468 10.468 0 0 0 -.68-1.62l3.16-3.16-4.24-4.24-3.16 3.16a10.468 10.468 0 0 0 -1.62-.68v-4.46h-6v4.46a10.468 10.468 0 0 0 -1.62.68l-3.16-3.16-2.22 2.22-2.02 2.02 3.16 3.16a10.468 10.468 0 0 0 -.68 1.62h-4.46v6h4.46a10.468 10.468 0 0 0 .68 1.62zm8.86-10.62a6 6 0 1 1 -6 6 6 6 0 0 1 6-6z" fill="#9bc9ff"/><g fill="#57a4ff"><path d="m61 21a1 1 0 0 0 1-1v-6a1 1 0 0 0 -1-1h-3.754c-.055-.139-.112-.277-.174-.416l2.656-2.655a1 1 0 0 0 0-1.414l-4.243-4.243a1 1 0 0 0 -1.414 0l-2.655 2.656c-.139-.062-.277-.119-.416-.174v-3.754a1 1 0 0 0 -1-1h-6a1 1 0 0 0 -1 1v3.754c-.139.055-.277.112-.416.174l-2.655-2.656a1 1 0 0 0 -1.414 0l-4.243 4.243a1 1 0 0 0 0 1.414l2.656 2.655c-.062.139-.119.277-.174.416h-3.754a1 1 0 0 0 -1 1v2h-23a3 3 0 0 0 -3 3v5.787l-1.728 1.728a1 1 0 0 0 0 1.414l2.656 2.655c-.062.139-.119.277-.174.416h-3.754a1 1 0 0 0 -1 1v6a1 1 0 0 0 1 1h3.754c.055.139.112.277.174.416l-2.656 2.655a1 1 0 0 0 0 1.414l1.728 1.728v6.787h-3a1 1 0 0 0 -1 1v4a5.006 5.006 0 0 0 5 5h50a5.006 5.006 0 0 0 5-5v-4a1 1 0 0 0 -1-1h-3v-24.787l1.728-1.728a1 1 0 0 0 0-1.414l-2.656-2.655c.062-.139.119-.277.174-.416zm-52.156 19.328a1 1 0 0 0 .179-1.17 9.049 9.049 0 0 1 -.61-1.459 1 1 0 0 0 -.954-.7h-3.459v-3.999h3.459a1 1 0 0 0 .954-.7 9.049 9.049 0 0 1 .61-1.459 1 1 0 0 0 -.179-1.17l-2.45-2.45 2.828-2.828 2.45 2.45a1 1 0 0 0 1.17.179 9.049 9.049 0 0 1 1.459-.61 1 1 0 0 0 .7-.954v-3.458h4v3.459a1 1 0 0 0 .7.954 9.049 9.049 0 0 1 1.459.61 1 1 0 0 0 1.17-.179l2.45-2.45 2.828 2.828-2.45 2.45a1 1 0 0 0 -.179 1.17 9.049 9.049 0 0 1 .61 1.459 1 1 0 0 0 .954.7h3.457v4h-3.459a1 1 0 0 0 -.954.7 9.049 9.049 0 0 1 -.61 1.459 1 1 0 0 0 .179 1.17l2.45 2.45-2.828 2.828-2.45-2.45a1 1 0 0 0 -1.17-.179 9.049 9.049 0 0 1 -1.459.61 1 1 0 0 0 -.7.954v3.457h-3.999v-3.459a1 1 0 0 0 -.7-.954 9.049 9.049 0 0 1 -1.459-.61 1 1 0 0 0 -1.17.179l-2.45 2.45-2.827-2.828zm51.156 16.672a3 3 0 0 1 -3 3h-50a3 3 0 0 1 -3-3v-3h17v1a3 3 0 0 0 3 3h16a3 3 0 0 0 3-3v-1h17zm-4-5h-14a1 1 0 0 0 -1 1v2a1 1 0 0 1 -1 1h-16a1 1 0 0 1 -1-1v-2a1 1 0 0 0 -1-1h-14v-4.787l.515.515a1 1 0 0 0 1.414 0l2.655-2.656c.139.062.277.119.416.174v3.754a1 1 0 0 0 1 1h6a1 1 0 0 0 1-1v-3.754c.139-.055.277-.112.416-.174l2.655 2.656a1 1 0 0 0 1.414 0l4.243-4.243a1 1 0 0 0 0-1.414l-2.656-2.655c.062-.139.119-.277.174-.416h3.754a1 1 0 0 0 1-1v-6a1 1 0 0 0 -1-1h-3.754c-.055-.139-.112-.277-.174-.416l2.656-2.655a1 1 0 0 0 0-1.414l-4.243-4.243a1 1 0 0 0 -1.414 0l-2.655 2.656c-.139-.062-.277-.119-.416-.174v-3.754a1 1 0 0 0 -1-1h-6a1 1 0 0 0 -1 1v3.754c-.139.055-.277.112-.416.174l-2.655-2.656a1 1 0 0 0 -1.414 0l-.515.515v-3.787a1 1 0 0 1 1-1h23v2a1 1 0 0 0 1 1h3.754c.055.139.112.277.174.416l-2.656 2.655a1 1 0 0 0 0 1.414l4.243 4.243a1 1 0 0 0 1.414 0l2.655-2.656c.139.062.277.119.416.174v3.754a1 1 0 0 0 1 1h6a1 1 0 0 0 1-1v-3.754c.139-.055.277-.112.416-.174l2.655 2.656a1 1 0 0 0 1.414 0l.515-.515zm-.844-29.672 2.45 2.45-2.828 2.828-2.45-2.45a1 1 0 0 0 -1.17-.179 9.049 9.049 0 0 1 -1.459.61 1 1 0 0 0 -.7.954v3.459h-3.999v-3.459a1 1 0 0 0 -.7-.954 9.049 9.049 0 0 1 -1.459-.61 1 1 0 0 0 -1.17.179l-2.45 2.45-2.828-2.828 2.45-2.45a1 1 0 0 0 .179-1.17 9.049 9.049 0 0 1 -.61-1.459 1 1 0 0 0 -.954-.7h-3.458v-3.999h3.459a1 1 0 0 0 .954-.7 9.049 9.049 0 0 1 .61-1.459 1 1 0 0 0 -.179-1.17l-2.45-2.45 2.828-2.828 2.45 2.45a1 1 0 0 0 1.17.179 9.049 9.049 0 0 1 1.459-.61 1 1 0 0 0 .7-.954v-3.458h4v3.459a1 1 0 0 0 .7.954 9.049 9.049 0 0 1 1.459.61 1 1 0 0 0 1.17-.179l2.45-2.45 2.828 2.828-2.45 2.45a1 1 0 0 0 -.179 1.17 9.049 9.049 0 0 1 .61 1.459 1 1 0 0 0 .954.7h3.457v4h-3.459a1 1 0 0 0 -.954.7 9.049 9.049 0 0 1 -.61 1.459 1 1 0 0 0 .179 1.168z"/><path d="m47 10a7 7 0 1 0 7 7 7.009 7.009 0 0 0 -7-7zm0 12a5 5 0 1 1 5-5 5.006 5.006 0 0 1 -5 5z"/><path d="m17 42a7 7 0 1 0 -7-7 7.009 7.009 0 0 0 7 7zm0-12a5 5 0 1 1 -5 5 5.006 5.006 0 0 1 5-5z"/><path d="m36 35h4v2h-4z"/><path d="m42 35h10v2h-10z"/><path d="m36 41h4v2h-4z"/><path d="m42 41h10v2h-10z"/><path d="m36 47h4v2h-4z"/><path d="m42 47h10v2h-10z"/></g></svg>