<svg height="512" viewBox="0 0 64 64" width="512" xmlns="http://www.w3.org/2000/svg"><g fill="#9bc9ff"><path d="m3 55v2a4 4 0 0 0 4 4h50a4 4 0 0 0 4-4v-2l-21.76-11.35a20.089 20.089 0 0 1 -14.48 0z"/><path d="m45 6v3.81a19.906 19.906 0 0 0 -13-4.81c2.77 0 5.21 3.51 6.64 8.86a19.9 19.9 0 0 0 6.58-3.86 18.845 18.845 0 0 1 2.78 3h11a2.006 2.006 0 0 0 2-2v-5l-8 3z"/><path d="m45.22 40a19.321 19.321 0 0 0 3.7-4.36h.01l12.07-4.64v-2a4 4 0 0 0 -4-4h-17a43.439 43.439 0 0 1 -1.36 11.14 19.9 19.9 0 0 1 6.58 3.86z"/><path d="m25.36 13.86a43.439 43.439 0 0 0 -1.36 11.14h16a43.439 43.439 0 0 0 -1.36-11.14 19.749 19.749 0 0 1 -6.64 1.14 19.749 19.749 0 0 1 -6.64-1.14z"/><path d="m25.36 36.14c1.43 5.35 3.87 8.86 6.64 8.86s5.21-3.51 6.64-8.86a19.908 19.908 0 0 0 -13.28 0z"/><path d="m32 5a19.906 19.906 0 0 0 -13 4.81v-3.81l-8 3-8-3v5a2.006 2.006 0 0 0 2 2h11a18.845 18.845 0 0 1 2.78-3 19.9 19.9 0 0 0 6.58 3.86c1.43-5.35 3.87-8.86 6.64-8.86z"/><path d="m12 25h-5a4 4 0 0 0 -4 4v2l12.07 4.64h.01a19.321 19.321 0 0 0 3.7 4.36 19.9 19.9 0 0 1 6.58-3.86 43.439 43.439 0 0 1 -1.36-11.14z"/></g><path d="m22 56h28v2h-28z" fill="#57a4ff"/><path d="m16 56h4v2h-4z" fill="#57a4ff"/><path d="m26 52h20v2h-20z" fill="#57a4ff"/><path d="m20 52h4v2h-4z" fill="#57a4ff"/><path d="m59 14a3 3 0 0 0 3-3v-6a3 3 0 0 0 -3-3h-12a3 3 0 0 0 -3 3v2.791a20.888 20.888 0 0 0 -24 0v-2.791a3 3 0 0 0 -3-3h-12a3 3 0 0 0 -3 3v6a3 3 0 0 0 3 3h9.146a20.823 20.823 0 0 0 -3.1 10h-4.046a5.006 5.006 0 0 0 -5 5v28a5.006 5.006 0 0 0 5 5h50a5.006 5.006 0 0 0 5-5v-28a5.006 5.006 0 0 0 -5-5h-4.051a20.823 20.823 0 0 0 -3.095-10zm-12-10h12a1 1 0 0 1 1 1v.307l-7 2.625-7-2.625v-.307a1 1 0 0 1 1-1zm-1 3.443 6.649 2.494a1.009 1.009 0 0 0 .7 0l6.651-2.494v3.557a1 1 0 0 1 -1 1h-10.539a21.152 21.152 0 0 0 -2.461-2.608zm-8.6 5.757a18.943 18.943 0 0 1 -5.4.8 18.943 18.943 0 0 1 -5.4-.8c1.384-4.491 3.454-7.2 5.4-7.2s4.016 2.709 5.4 7.2zm-1.06-6.684a18.913 18.913 0 0 1 7.282 3.484 18.993 18.993 0 0 1 -4.346 2.527 18.745 18.745 0 0 0 -2.938-6.008zm-11.319 17.484a42.444 42.444 0 0 1 1.058-8.866 20.923 20.923 0 0 0 5.921.866 20.923 20.923 0 0 0 5.921-.866 42.444 42.444 0 0 1 1.058 8.866zm13.958 2a42.444 42.444 0 0 1 -1.058 8.866 20.674 20.674 0 0 0 -11.842 0 42.444 42.444 0 0 1 -1.058-8.866zm-14.255-13.47a18.993 18.993 0 0 1 -4.346-2.53 18.913 18.913 0 0 1 7.284-3.484 18.745 18.745 0 0 0 -2.938 6.014zm-5.886-1.2a20.988 20.988 0 0 0 5.346 3.144 44.172 44.172 0 0 0 -1.163 9.526h-9.97a18.929 18.929 0 0 1 5.787-12.672zm4.183 14.67a44.172 44.172 0 0 0 1.163 9.528 20.988 20.988 0 0 0 -5.346 3.144 18.929 18.929 0 0 1 -5.787-12.672zm-.521 17.7-18.5 9.651v-20.9l10.425 4a21.117 21.117 0 0 0 8.075 7.249zm-2.122-3.7a18.993 18.993 0 0 1 4.346-2.527 18.745 18.745 0 0 0 2.938 6.011 18.913 18.913 0 0 1 -7.284-3.484zm6.222-3.2a18.679 18.679 0 0 1 10.8 0c-1.384 4.491-3.454 7.2-5.4 7.2s-4.016-2.709-5.4-7.2zm12.674.673a18.993 18.993 0 0 1 4.348 2.527 18.913 18.913 0 0 1 -7.284 3.484 18.745 18.745 0 0 0 2.938-6.014zm10.3-1.011 10.425-4v20.9l-18.499-9.662a21.117 21.117 0 0 0 8.075-7.241zm-4.413 2.213a20.988 20.988 0 0 0 -5.346-3.144 44.172 44.172 0 0 0 1.164-9.531h9.97a18.929 18.929 0 0 1 -5.787 12.672zm-4.182-14.675a44.172 44.172 0 0 0 -1.163-9.528 20.988 20.988 0 0 0 5.346-3.144 18.929 18.929 0 0 1 5.787 12.672zm-35.979-20h12a1 1 0 0 1 1 1v.307l-7 2.625-7-2.625v-.307a1 1 0 0 1 1-1zm0 8a1 1 0 0 1 -1-1v-3.557l6.649 2.494a1.009 1.009 0 0 0 .7 0l6.651-2.494v1.949a21.152 21.152 0 0 0 -2.461 2.608zm2 14h4.051a20.811 20.811 0 0 0 1.88 7.743l-8.931-3.43v-1.313a3 3 0 0 1 3-3zm50 34h-50a3 3 0 0 1 -3-3v-1.394l20.863-10.882a20.6 20.6 0 0 0 14.274 0l20.863 10.882v1.394a3 3 0 0 1 -3 3zm3-31v1.313l-8.931 3.43a20.811 20.811 0 0 0 1.88-7.743h4.051a3 3 0 0 1 3 3z" fill="#57a4ff"/></svg>